<svg width="24" height="24" viewBox="0 0 24 24" xmlns="http://www.w3.org/2000/svg">
    <path fill-rule="evenodd" clip-rule="evenodd" d="M13.5 12C12.671 12 12 11.329 12 10.5C12 10.201 12.09 9.925 12.24 9.691C12.16 9.683 12.082 9.667 12 9.667C10.711 9.667 9.667 10.711 9.667 12C9.667 13.289 10.711 14.333 12 14.333C13.289 14.333 14.333 13.289 14.333 12C14.333 11.918 14.317 11.84 14.309 11.76C14.075 11.91 13.799 12 13.5 12ZM12 16C9.473 16 7.199 13.621 6.267 12.5C7.199 11.378 9.473 9 12 9C14.527 9 16.801 11.379 17.733 12.5C16.801 13.622 14.527 16 12 16ZM12 8C8.134 8 5 12.5 5 12.5C5 12.5 8.134 17 12 17C15.866 17 19 12.5 19 12.5C19 12.5 15.866 8 12 8Z" />
</svg>
