<svg width="24" height="24" viewBox="0 0 24 24" xmlns="http://www.w3.org/2000/svg">
    <path fill-rule="evenodd" clip-rule="evenodd" d="M9 11V12H10V11C10 10.465 10.246 9.992 10.625 9.671V8.496C9.668 8.926 9 9.883 9 11ZM6 16C6 14.897 6.897 14 8 14H16C17.103 14 18 14.897 18 16H6ZM12 19C10.897 19 10 18.103 10 17H14C14 18.103 13.103 19 12 19ZM8 11C8 8.794 9.794 7 12 7C14.206 7 16 8.794 16 11V13H8V11ZM12 5C12.551 5 13 5.449 13 6C13 6.035 12.983 6.064 12.98 6.099C12.663 6.036 12.336 6 12 6C11.664 6 11.337 6.036 11.02 6.099C11.017 6.064 11 6.035 11 6C11 5.449 11.449 5 12 5ZM17 13.184V11C17 10.957 16.988 10.917 16.987 10.875C16.937 8.864 15.709 7.147 13.959 6.4C13.986 6.271 14 6.137 14 6C14 4.896 13.104 4 12 4C10.896 4 10 4.896 10 6C10 6.137 10.014 6.271 10.041 6.4C8.253 7.163 7 8.935 7 11V13.184C5.837 13.597 5 14.696 5 16V16.5C5 16.775 5.225 17 5.5 17H9C9 18.657 10.343 20 12 20C13.657 20 15 18.657 15 17H18.5C18.775 17 19 16.775 19 16.5V16C19 14.696 18.163 13.597 17 13.184Z" />
</svg>
