<svg width="24" height="24" viewBox="0 0 24 24" xmlns="http://www.w3.org/2000/svg">
    <path fill-rule="evenodd" clip-rule="evenodd" d="M18.251 11.565L17.979 11.262L17.123 11.812C17.172 11.864 17.219 11.915 17.265 11.964L17.521 12.251L17.733 12.5C16.801 13.622 14.527 16 12 16C11.61 16 11.226 15.943 10.852 15.843L9.78299 16.53C10.48 16.819 11.225 17 12 17C15.053 17 17.649 14.194 18.606 13.014L18.831 12.728L19 12.5L18.826 12.265C18.698 12.098 18.504 11.854 18.251 11.565ZM20.191 8.65001L19.65 7.80901L16.474 9.85101C15.26 8.87401 13.703 8.00001 12 8.00001C8.85899 8.00001 6.20099 10.971 5.31499 12.085L5.11799 12.339L4.99999 12.5C4.99999 12.5 6.12599 14.101 7.85099 15.394L4.80899 17.35L5.34999 18.191L12.771 13.421L20.191 8.65001ZM6.47899 12.749L6.26699 12.5C7.19899 11.378 9.47299 9.00001 12 9.00001C13.315 9.00001 14.562 9.64501 15.586 10.422L13.184 11.966C12.508 11.821 12 11.221 12 10.5C12 10.201 12.09 9.92501 12.24 9.69101C12.16 9.68301 12.082 9.66701 12 9.66701C10.711 9.66701 9.66699 10.711 9.66699 12C9.66699 12.689 9.97399 13.298 10.448 13.725L8.75599 14.813C7.79899 14.148 6.99599 13.343 6.47899 12.749Z"/>
</svg>
