<svg width="24" height="24" viewBox="0 0 24 24" xmlns="http://www.w3.org/2000/svg">
    <path fill-rule="evenodd" clip-rule="evenodd" d="M16.8428 12.7872C15.7268 13.9032 14.0518 14.2512 12.5758 13.6742L11.9698 13.4372L11.5098 13.8972L7.6948 17.7132C7.3058 18.1012 6.6748 18.1012 6.2868 17.7132C5.8988 17.3252 5.8988 16.6942 6.2868 16.3062L10.1028 12.4902L10.5628 12.0302L10.3258 11.4242C9.7488 9.94817 10.0968 8.27317 11.2128 7.15717C12.2498 6.12017 13.7178 5.79217 15.0438 6.14117L14.0278 7.15717C13.2508 7.93417 13.2508 9.19517 14.0278 9.97217C14.8048 10.7492 16.0658 10.7492 16.8428 9.97217L17.8588 8.95617C18.2078 10.2822 17.8798 11.7502 16.8428 12.7872ZM18.6568 8.15817C18.5308 7.83617 18.3748 7.52317 18.1788 7.22817L17.4468 7.96117L16.1388 9.26817C15.7508 9.65617 15.1198 9.65617 14.7318 9.26817C14.3438 8.88017 14.3438 8.24917 14.7318 7.86117L16.0388 6.55317L16.7718 5.82117C16.4768 5.62517 16.1638 5.46917 15.8418 5.34317C14.0568 4.64417 11.9508 5.01117 10.5098 6.45417C9.0668 7.89517 8.7008 10.0012 9.3988 11.7862L5.5828 15.6022C4.8058 16.3792 4.8058 17.6402 5.5828 18.4172C6.3608 19.1942 7.6208 19.1942 8.3978 18.4172L12.2138 14.6012C13.9988 15.2992 16.1048 14.9332 17.5468 13.4912C18.9888 12.0492 19.3548 9.94317 18.6568 8.15817Z" />
</svg>
