<svg width="24" height="24" viewBox="0 0 24 24" xmlns="http://www.w3.org/2000/svg">
    <path fill-rule="evenodd" clip-rule="evenodd" d="M12 4C7.581 4 4 7.582 4 12C4 16.418 7.581 20 12 20C16.418 20 20 16.418 20 12C20 7.582 16.418 4 12 4ZM7.803 17.663C8.341 16.25 10.025 15.254 12 15.254C13.975 15.254 15.66 16.25 16.198 17.662C15.023 18.535 13.573 19.059 12 19.059C10.427 19.059 8.978 18.536 7.803 17.663ZM16.954 17.021C16.167 15.415 14.225 14.313 12 14.313C9.774 14.313 7.833 15.415 7.047 17.022C5.748 15.741 4.941 13.964 4.941 12C4.941 8.108 8.108 4.941 12 4.941C15.892 4.941 19.058 8.108 19.058 12C19.058 13.963 18.252 15.74 16.954 17.021ZM11.9999 12.4707C11.0289 12.4707 10.1179 11.0447 10.1179 10.1847C10.1179 9.3687 10.9619 8.7057 11.9999 8.7057C13.0379 8.7057 13.8819 9.3687 13.8819 10.1847C13.8819 11.0447 12.9709 12.4707 11.9999 12.4707ZM11.9999 7.7647C10.4399 7.7647 9.1759 8.8477 9.1759 10.1847C9.1759 11.5217 10.4399 13.4117 11.9999 13.4117C13.5599 13.4117 14.8239 11.5217 14.8239 10.1847C14.8239 8.8477 13.5599 7.7647 11.9999 7.7647Z" />
</svg>
