<svg width="24" height="24" viewBox="0 0 24 24" xmlns="http://www.w3.org/2000/svg">
    <path fill-rule="evenodd" clip-rule="evenodd" d="M17.1568 12.031H16.1568V13.031V18.031H14.1568V15.031C14.1568 13.927 13.2608 13.031 12.1568 13.031C11.0528 13.031 10.1568 13.927 10.1568 15.031V18.031H8.1568V13.031V12.031H7.1568H6.5638L12.1568 6.417L17.7498 12.031H17.1568ZM19.1378 12.008L12.1568 5L5.1758 12.008C4.7998 12.386 5.0668 13.031 5.5998 13.031H7.1568V19.031H10.1568H11.1568V18.031V17.031V15.031C11.1568 14.479 11.6048 14.031 12.1568 14.031C12.7088 14.031 13.1568 14.479 13.1568 15.031V17.031V18.031V19.031H14.1568H17.1568V13.031H18.7138C19.2468 13.031 19.5138 12.386 19.1378 12.008Z" />
</svg>
