<svg width="24" height="24" viewBox="0 0 24 24" xmlns="http://www.w3.org/2000/svg">
    <path fill-rule="evenodd" clip-rule="evenodd" d="M18.237 6H5.763C4.791 6 4 6.791 4 7.763V16.237C4 17.209 4.791 18 5.763 18H18.237C19.209 18 20 17.209 20 16.237V7.763C20 6.791 19.209 6 18.237 6ZM19 16.237C19 16.658 18.658 17 18.237 17H5.763C5.342 17 5 16.658 5 16.237V13.707L7.5 11.207L11.453 15.16L19 9.5V16.237ZM19 8.25L11.547 13.84L7.5 9.793L5 12.293V7.763C5 7.342 5.342 7 5.763 7H18.237C18.658 7 19 7.342 19 7.763V8.25ZM12.5 10C12.225 10 12 9.775 12 9.5C12 9.225 12.225 9 12.5 9C12.775 9 13 9.225 13 9.5C13 9.775 12.775 10 12.5 10ZM12.5 8C11.672 8 11 8.672 11 9.5C11 10.328 11.672 11 12.5 11C13.328 11 14 10.328 14 9.5C14 8.672 13.328 8 12.5 8Z" />
</svg>
